{
	"asset":{
		"generator":"Khronos glTF Blender I/O v3.5.30",
		"version":"2.0"
	},
	"scene":0,
	"scenes":[
		{
			"name":"Scene",
			"nodes":[
				0,
				1,
				2,
				3
			]
		}
	],
	"nodes":[
		{
			"mesh":0,
			"name":"Mesh_0.004",
			"scale":[
				20.17487907409668,
				20.17487907409668,
				20.17487907409668
			],
			"translation":[
				0,
				1.3052690029144287,
				0
			]
		},
		{
			"mesh":1,
			"name":"Mesh_1.003",
			"scale":[
				20.17487907409668,
				20.17487907409668,
				20.17487907409668
			],
			"translation":[
				0,
				1.3052690029144287,
				0
			]
		},
		{
			"mesh":2,
			"name":"Mesh_2.003",
			"scale":[
				20.17487907409668,
				20.17487907409668,
				20.17487907409668
			],
			"translation":[
				0,
				1.3052690029144287,
				0
			]
		},
		{
			"mesh":3,
			"name":"Mesh_3.003",
			"scale":[
				20.17487907409668,
				20.17487907409668,
				20.17487907409668
			],
			"translation":[
				0,
				1.3052690029144287,
				0
			]
		}
	],
	"animations":[
		{
			"channels":[
				{
					"sampler":0,
					"target":{
						"node":0,
						"path":"translation"
					}
				},
				{
					"sampler":1,
					"target":{
						"node":0,
						"path":"rotation"
					}
				},
				{
					"sampler":2,
					"target":{
						"node":0,
						"path":"scale"
					}
				}
			],
			"name":"Mesh_0.004Action",
			"samplers":[
				{
					"input":16,
					"interpolation":"LINEAR",
					"output":17
				},
				{
					"input":16,
					"interpolation":"LINEAR",
					"output":18
				},
				{
					"input":16,
					"interpolation":"LINEAR",
					"output":19
				}
			]
		},
		{
			"channels":[
				{
					"sampler":0,
					"target":{
						"node":1,
						"path":"translation"
					}
				},
				{
					"sampler":1,
					"target":{
						"node":1,
						"path":"rotation"
					}
				},
				{
					"sampler":2,
					"target":{
						"node":1,
						"path":"scale"
					}
				}
			],
			"name":"Mesh_1.003Action",
			"samplers":[
				{
					"input":16,
					"interpolation":"LINEAR",
					"output":20
				},
				{
					"input":16,
					"interpolation":"LINEAR",
					"output":21
				},
				{
					"input":16,
					"interpolation":"LINEAR",
					"output":22
				}
			]
		},
		{
			"channels":[
				{
					"sampler":0,
					"target":{
						"node":2,
						"path":"translation"
					}
				},
				{
					"sampler":1,
					"target":{
						"node":2,
						"path":"rotation"
					}
				},
				{
					"sampler":2,
					"target":{
						"node":2,
						"path":"scale"
					}
				}
			],
			"name":"Mesh_2.003Action",
			"samplers":[
				{
					"input":16,
					"interpolation":"LINEAR",
					"output":23
				},
				{
					"input":16,
					"interpolation":"LINEAR",
					"output":24
				},
				{
					"input":16,
					"interpolation":"LINEAR",
					"output":25
				}
			]
		},
		{
			"channels":[
				{
					"sampler":0,
					"target":{
						"node":3,
						"path":"translation"
					}
				},
				{
					"sampler":1,
					"target":{
						"node":3,
						"path":"rotation"
					}
				},
				{
					"sampler":2,
					"target":{
						"node":3,
						"path":"scale"
					}
				}
			],
			"name":"Mesh_3.003Action",
			"samplers":[
				{
					"input":16,
					"interpolation":"LINEAR",
					"output":26
				},
				{
					"input":16,
					"interpolation":"LINEAR",
					"output":27
				},
				{
					"input":16,
					"interpolation":"LINEAR",
					"output":28
				}
			]
		}
	],
	"materials":[
		{
			"doubleSided":true,
			"name":"Material_0.003",
			"pbrMetallicRoughness":{
				"baseColorFactor":[
					0.76171875,
					0.125,
					0.1484375,
					1
				],
				"metallicFactor":0,
				"roughnessFactor":0.4000000059604645
			}
		},
		{
			"doubleSided":true,
			"name":"Material_1.003",
			"pbrMetallicRoughness":{
				"baseColorFactor":[
					0.25390625,
					0.25390625,
					0.26171875,
					1
				],
				"metallicFactor":0,
				"roughnessFactor":0.4000000059604645
			}
		},
		{
			"doubleSided":true,
			"name":"Material_2.003",
			"pbrMetallicRoughness":{
				"baseColorFactor":[
					0.9999999403953552,
					0.9999999403953552,
					0.9999999403953552,
					1
				],
				"metallicFactor":0,
				"roughnessFactor":0.4000000059604645
			}
		},
		{
			"doubleSided":true,
			"name":"Material_3.003",
			"pbrMetallicRoughness":{
				"baseColorFactor":[
					0.6171875,
					0.7734375,
					0.8828125,
					1
				],
				"metallicFactor":0,
				"roughnessFactor":0.4000000059604645
			}
		}
	],
	"meshes":[
		{
			"name":"Mesh_0.004",
			"primitives":[
				{
					"attributes":{
						"POSITION":0,
						"TEXCOORD_0":1,
						"NORMAL":2
					},
					"indices":3,
					"material":0
				}
			]
		},
		{
			"name":"Mesh_1.003",
			"primitives":[
				{
					"attributes":{
						"POSITION":4,
						"TEXCOORD_0":5,
						"NORMAL":6
					},
					"indices":7,
					"material":1
				}
			]
		},
		{
			"name":"Mesh_2.003",
			"primitives":[
				{
					"attributes":{
						"POSITION":8,
						"TEXCOORD_0":9,
						"NORMAL":10
					},
					"indices":11,
					"material":2
				}
			]
		},
		{
			"name":"Mesh_3.003",
			"primitives":[
				{
					"attributes":{
						"POSITION":12,
						"TEXCOORD_0":13,
						"NORMAL":14
					},
					"indices":15,
					"material":3
				}
			]
		}
	],
	"accessors":[
		{
			"bufferView":0,
			"componentType":5126,
			"count":21,
			"max":[
				0.009107432328164577,
				0.0006666510598734021,
				0.0050399997271597385
			],
			"min":[
				-0.006687684450298548,
				-0.01614409126341343,
				-0.0050399997271597385
			],
			"type":"VEC3"
		},
		{
			"bufferView":1,
			"componentType":5126,
			"count":21,
			"type":"VEC2"
		},
		{
			"bufferView":2,
			"componentType":5126,
			"count":21,
			"type":"VEC3"
		},
		{
			"bufferView":3,
			"componentType":5123,
			"count":42,
			"type":"SCALAR"
		},
		{
			"bufferView":4,
			"componentType":5126,
			"count":251,
			"max":[
				0.022571299225091934,
				0.019175440073013306,
				0.0050399997271597385
			],
			"min":[
				-0.03404022380709648,
				-0.02697143331170082,
				-0.0050399997271597385
			],
			"type":"VEC3"
		},
		{
			"bufferView":5,
			"componentType":5126,
			"count":251,
			"type":"VEC2"
		},
		{
			"bufferView":6,
			"componentType":5126,
			"count":251,
			"type":"VEC3"
		},
		{
			"bufferView":7,
			"componentType":5123,
			"count":834,
			"type":"SCALAR"
		},
		{
			"bufferView":8,
			"componentType":5126,
			"count":42,
			"max":[
				0.033842045813798904,
				0.03062637895345688,
				0.00215999991632998
			],
			"min":[
				-0.019204523414373398,
				-0.030626410618424416,
				-0.0050399997271597385
			],
			"type":"VEC3"
		},
		{
			"bufferView":9,
			"componentType":5126,
			"count":42,
			"type":"VEC2"
		},
		{
			"bufferView":10,
			"componentType":5126,
			"count":42,
			"type":"VEC3"
		},
		{
			"bufferView":11,
			"componentType":5123,
			"count":96,
			"type":"SCALAR"
		},
		{
			"bufferView":12,
			"componentType":5126,
			"count":200,
			"max":[
				0.03404022380709648,
				0.030824612826108932,
				0.00215999991632998
			],
			"min":[
				-0.019402720034122467,
				-0.030824612826108932,
				-0.0050399997271597385
			],
			"type":"VEC3"
		},
		{
			"bufferView":13,
			"componentType":5126,
			"count":200,
			"type":"VEC2"
		},
		{
			"bufferView":14,
			"componentType":5126,
			"count":200,
			"type":"VEC3"
		},
		{
			"bufferView":15,
			"componentType":5123,
			"count":648,
			"type":"SCALAR"
		},
		{
			"bufferView":16,
			"componentType":5126,
			"count":154,
			"max":[
				6.416666666666667
			],
			"min":[
				0.041666666666666664
			],
			"type":"SCALAR"
		},
		{
			"bufferView":17,
			"componentType":5126,
			"count":154,
			"type":"VEC3"
		},
		{
			"bufferView":18,
			"componentType":5126,
			"count":154,
			"type":"VEC4"
		},
		{
			"bufferView":19,
			"componentType":5126,
			"count":154,
			"type":"VEC3"
		},
		{
			"bufferView":20,
			"componentType":5126,
			"count":154,
			"type":"VEC3"
		},
		{
			"bufferView":21,
			"componentType":5126,
			"count":154,
			"type":"VEC4"
		},
		{
			"bufferView":22,
			"componentType":5126,
			"count":154,
			"type":"VEC3"
		},
		{
			"bufferView":23,
			"componentType":5126,
			"count":154,
			"type":"VEC3"
		},
		{
			"bufferView":24,
			"componentType":5126,
			"count":154,
			"type":"VEC4"
		},
		{
			"bufferView":25,
			"componentType":5126,
			"count":154,
			"type":"VEC3"
		},
		{
			"bufferView":26,
			"componentType":5126,
			"count":154,
			"type":"VEC3"
		},
		{
			"bufferView":27,
			"componentType":5126,
			"count":154,
			"type":"VEC4"
		},
		{
			"bufferView":28,
			"componentType":5126,
			"count":154,
			"type":"VEC3"
		}
	],
	"bufferViews":[
		{
			"buffer":0,
			"byteLength":252,
			"byteOffset":0,
			"target":34962
		},
		{
			"buffer":0,
			"byteLength":168,
			"byteOffset":252,
			"target":34962
		},
		{
			"buffer":0,
			"byteLength":252,
			"byteOffset":420,
			"target":34962
		},
		{
			"buffer":0,
			"byteLength":84,
			"byteOffset":672,
			"target":34963
		},
		{
			"buffer":0,
			"byteLength":3012,
			"byteOffset":756,
			"target":34962
		},
		{
			"buffer":0,
			"byteLength":2008,
			"byteOffset":3768,
			"target":34962
		},
		{
			"buffer":0,
			"byteLength":3012,
			"byteOffset":5776,
			"target":34962
		},
		{
			"buffer":0,
			"byteLength":1668,
			"byteOffset":8788,
			"target":34963
		},
		{
			"buffer":0,
			"byteLength":504,
			"byteOffset":10456,
			"target":34962
		},
		{
			"buffer":0,
			"byteLength":336,
			"byteOffset":10960,
			"target":34962
		},
		{
			"buffer":0,
			"byteLength":504,
			"byteOffset":11296,
			"target":34962
		},
		{
			"buffer":0,
			"byteLength":192,
			"byteOffset":11800,
			"target":34963
		},
		{
			"buffer":0,
			"byteLength":2400,
			"byteOffset":11992,
			"target":34962
		},
		{
			"buffer":0,
			"byteLength":1600,
			"byteOffset":14392,
			"target":34962
		},
		{
			"buffer":0,
			"byteLength":2400,
			"byteOffset":15992,
			"target":34962
		},
		{
			"buffer":0,
			"byteLength":1296,
			"byteOffset":18392,
			"target":34963
		},
		{
			"buffer":0,
			"byteLength":616,
			"byteOffset":19688
		},
		{
			"buffer":0,
			"byteLength":1848,
			"byteOffset":20304
		},
		{
			"buffer":0,
			"byteLength":2464,
			"byteOffset":22152
		},
		{
			"buffer":0,
			"byteLength":1848,
			"byteOffset":24616
		},
		{
			"buffer":0,
			"byteLength":1848,
			"byteOffset":26464
		},
		{
			"buffer":0,
			"byteLength":2464,
			"byteOffset":28312
		},
		{
			"buffer":0,
			"byteLength":1848,
			"byteOffset":30776
		},
		{
			"buffer":0,
			"byteLength":1848,
			"byteOffset":32624
		},
		{
			"buffer":0,
			"byteLength":2464,
			"byteOffset":34472
		},
		{
			"buffer":0,
			"byteLength":1848,
			"byteOffset":36936
		},
		{
			"buffer":0,
			"byteLength":1848,
			"byteOffset":38784
		},
		{
			"buffer":0,
			"byteLength":2464,
			"byteOffset":40632
		},
		{
			"buffer":0,
			"byteLength":1848,
			"byteOffset":43096
		}
	],
	"buffers":[
		{
			"byteLength":44944,
			"uri":"data:application/octet-stream;base64,"
		}
	]
}
