{
    "asset" : {
        "generator" : "Khronos glTF Blender I/O v1.7.33",
        "version" : "2.0"
    },
    "scene" : 0,
    "scenes" : [
        {
            "name" : "Scene",
            "nodes" : [
                0,
                1,
                2,
                3
            ]
        }
    ],
    "nodes" : [
        {
            "mesh" : 0,
            "name" : "Mesh_0.009",
            "scale" : [
                20.17487907409668,
                20.17487907409668,
                20.17487907409668
            ],
            "translation" : [
                0,
                1.3052690029144287,
                0
            ]
        },
        {
            "mesh" : 1,
            "name" : "Mesh_1.006",
            "scale" : [
                20.17487907409668,
                20.17487907409668,
                20.17487907409668
            ],
            "translation" : [
                0,
                1.3052690029144287,
                0
            ]
        },
        {
            "mesh" : 2,
            "name" : "Mesh_2.006",
            "scale" : [
                20.17487907409668,
                20.17487907409668,
                20.17487907409668
            ],
            "translation" : [
                0,
                1.3052690029144287,
                0
            ]
        },
        {
            "mesh" : 3,
            "name" : "Mesh_3.006",
            "scale" : [
                20.17487907409668,
                20.17487907409668,
                20.17487907409668
            ],
            "translation" : [
                0,
                1.3052690029144287,
                0
            ]
        }
    ],
    "animations" : [
        {
            "channels" : [
                {
                    "sampler" : 0,
                    "target" : {
                        "node" : 0,
                        "path" : "translation"
                    }
                },
                {
                    "sampler" : 1,
                    "target" : {
                        "node" : 0,
                        "path" : "rotation"
                    }
                },
                {
                    "sampler" : 2,
                    "target" : {
                        "node" : 0,
                        "path" : "scale"
                    }
                }
            ],
            "name" : "Mesh_0.009Action",
            "samplers" : [
                {
                    "input" : 16,
                    "interpolation" : "LINEAR",
                    "output" : 17
                },
                {
                    "input" : 18,
                    "interpolation" : "LINEAR",
                    "output" : 19
                },
                {
                    "input" : 18,
                    "interpolation" : "LINEAR",
                    "output" : 20
                }
            ]
        },
        {
            "channels" : [
                {
                    "sampler" : 0,
                    "target" : {
                        "node" : 1,
                        "path" : "translation"
                    }
                },
                {
                    "sampler" : 1,
                    "target" : {
                        "node" : 1,
                        "path" : "rotation"
                    }
                },
                {
                    "sampler" : 2,
                    "target" : {
                        "node" : 1,
                        "path" : "scale"
                    }
                }
            ],
            "name" : "Mesh_1.006Action",
            "samplers" : [
                {
                    "input" : 16,
                    "interpolation" : "LINEAR",
                    "output" : 21
                },
                {
                    "input" : 18,
                    "interpolation" : "LINEAR",
                    "output" : 22
                },
                {
                    "input" : 18,
                    "interpolation" : "LINEAR",
                    "output" : 23
                }
            ]
        },
        {
            "channels" : [
                {
                    "sampler" : 0,
                    "target" : {
                        "node" : 2,
                        "path" : "translation"
                    }
                },
                {
                    "sampler" : 1,
                    "target" : {
                        "node" : 2,
                        "path" : "rotation"
                    }
                },
                {
                    "sampler" : 2,
                    "target" : {
                        "node" : 2,
                        "path" : "scale"
                    }
                }
            ],
            "name" : "Mesh_2.006Action",
            "samplers" : [
                {
                    "input" : 16,
                    "interpolation" : "LINEAR",
                    "output" : 24
                },
                {
                    "input" : 18,
                    "interpolation" : "LINEAR",
                    "output" : 25
                },
                {
                    "input" : 18,
                    "interpolation" : "LINEAR",
                    "output" : 26
                }
            ]
        },
        {
            "channels" : [
                {
                    "sampler" : 0,
                    "target" : {
                        "node" : 3,
                        "path" : "translation"
                    }
                },
                {
                    "sampler" : 1,
                    "target" : {
                        "node" : 3,
                        "path" : "rotation"
                    }
                },
                {
                    "sampler" : 2,
                    "target" : {
                        "node" : 3,
                        "path" : "scale"
                    }
                }
            ],
            "name" : "Mesh_3.006Action",
            "samplers" : [
                {
                    "input" : 16,
                    "interpolation" : "LINEAR",
                    "output" : 27
                },
                {
                    "input" : 18,
                    "interpolation" : "LINEAR",
                    "output" : 28
                },
                {
                    "input" : 18,
                    "interpolation" : "LINEAR",
                    "output" : 29
                }
            ]
        }
    ],
    "materials" : [
        {
            "doubleSided" : true,
            "name" : "Material_0.007",
            "pbrMetallicRoughness" : {
                "baseColorFactor" : [
                    0.9453124403953552,
                    0.54296875,
                    0,
                    1
                ],
                "metallicFactor" : 0,
                "roughnessFactor" : 0.4000000059604645
            }
        },
        {
            "doubleSided" : true,
            "name" : "Material_1.006",
            "pbrMetallicRoughness" : {
                "baseColorFactor" : [
                    0.1093750074505806,
                    0.1054687574505806,
                    0.1015625074505806,
                    1
                ],
                "metallicFactor" : 0,
                "roughnessFactor" : 0.4000000059604645
            }
        },
        {
            "doubleSided" : true,
            "name" : "Material_2.006",
            "pbrMetallicRoughness" : {
                "baseColorFactor" : [
                    0.9999999403953552,
                    0.9999999403953552,
                    0.9999999403953552,
                    1
                ],
                "metallicFactor" : 0,
                "roughnessFactor" : 0.4000000059604645
            }
        },
        {
            "doubleSided" : true,
            "name" : "Material_3.006",
            "pbrMetallicRoughness" : {
                "baseColorFactor" : [
                    0.6171875,
                    0.7734375,
                    0.8828125,
                    1
                ],
                "metallicFactor" : 0,
                "roughnessFactor" : 0.4000000059604645
            }
        }
    ],
    "meshes" : [
        {
            "name" : "Mesh_0.009",
            "primitives" : [
                {
                    "attributes" : {
                        "POSITION" : 0,
                        "NORMAL" : 1,
                        "TEXCOORD_0" : 2
                    },
                    "indices" : 3,
                    "material" : 0
                }
            ]
        },
        {
            "name" : "Mesh_1.006",
            "primitives" : [
                {
                    "attributes" : {
                        "POSITION" : 4,
                        "NORMAL" : 5,
                        "TEXCOORD_0" : 6
                    },
                    "indices" : 7,
                    "material" : 1
                }
            ]
        },
        {
            "name" : "Mesh_2.006",
            "primitives" : [
                {
                    "attributes" : {
                        "POSITION" : 8,
                        "NORMAL" : 9,
                        "TEXCOORD_0" : 10
                    },
                    "indices" : 11,
                    "material" : 2
                }
            ]
        },
        {
            "name" : "Mesh_3.006",
            "primitives" : [
                {
                    "attributes" : {
                        "POSITION" : 12,
                        "NORMAL" : 13,
                        "TEXCOORD_0" : 14
                    },
                    "indices" : 15,
                    "material" : 3
                }
            ]
        }
    ],
    "accessors" : [
        {
            "bufferView" : 0,
            "componentType" : 5126,
            "count" : 2048,
            "max" : [
                0.010839112102985382,
                0.0090348394587636,
                0.0050399997271597385
            ],
            "min" : [
                -0.006725730840116739,
                -0.008533762767910957,
                -0.0050399997271597385
            ],
            "type" : "VEC3"
        },
        {
            "bufferView" : 1,
            "componentType" : 5126,
            "count" : 2048,
            "type" : "VEC3"
        },
        {
            "bufferView" : 2,
            "componentType" : 5126,
            "count" : 2048,
            "type" : "VEC2"
        },
        {
            "bufferView" : 3,
            "componentType" : 5123,
            "count" : 4596,
            "type" : "SCALAR"
        },
        {
            "bufferView" : 4,
            "componentType" : 5126,
            "count" : 5015,
            "max" : [
                0.012825440615415573,
                0.018702954053878784,
                0.0050399997271597385
            ],
            "min" : [
                -0.01988588646054268,
                -0.018199827522039413,
                -0.0050399997271597385
            ],
            "type" : "VEC3"
        },
        {
            "bufferView" : 5,
            "componentType" : 5126,
            "count" : 5015,
            "type" : "VEC3"
        },
        {
            "bufferView" : 6,
            "componentType" : 5126,
            "count" : 5015,
            "type" : "VEC2"
        },
        {
            "bufferView" : 7,
            "componentType" : 5123,
            "count" : 10500,
            "type" : "SCALAR"
        },
        {
            "bufferView" : 8,
            "componentType" : 5126,
            "count" : 64,
            "max" : [
                0.026523124426603317,
                0.030626345425844193,
                0.00215999991632998
            ],
            "min" : [
                -0.026523353531956673,
                -0.030626241117715836,
                -0.0050399997271597385
            ],
            "type" : "VEC3"
        },
        {
            "bufferView" : 9,
            "componentType" : 5126,
            "count" : 64,
            "type" : "VEC3"
        },
        {
            "bufferView" : 10,
            "componentType" : 5126,
            "count" : 64,
            "type" : "VEC2"
        },
        {
            "bufferView" : 11,
            "componentType" : 5123,
            "count" : 96,
            "type" : "SCALAR"
        },
        {
            "bufferView" : 12,
            "componentType" : 5126,
            "count" : 320,
            "max" : [
                0.026721594855189323,
                0.030824579298496246,
                0.00215999991632998
            ],
            "min" : [
                -0.026721594855189323,
                -0.030824579298496246,
                -0.0050399997271597385
            ],
            "type" : "VEC3"
        },
        {
            "bufferView" : 13,
            "componentType" : 5126,
            "count" : 320,
            "type" : "VEC3"
        },
        {
            "bufferView" : 14,
            "componentType" : 5126,
            "count" : 320,
            "type" : "VEC2"
        },
        {
            "bufferView" : 15,
            "componentType" : 5123,
            "count" : 648,
            "type" : "SCALAR"
        },
        {
            "bufferView" : 16,
            "componentType" : 5126,
            "count" : 154,
            "max" : [
                6.416666666666667
            ],
            "min" : [
                0.041666666666666664
            ],
            "type" : "SCALAR"
        },
        {
            "bufferView" : 17,
            "componentType" : 5126,
            "count" : 154,
            "type" : "VEC3"
        },
        {
            "bufferView" : 18,
            "componentType" : 5126,
            "count" : 2,
            "max" : [
                6.416666666666667
            ],
            "min" : [
                0.041666666666666664
            ],
            "type" : "SCALAR"
        },
        {
            "bufferView" : 19,
            "componentType" : 5126,
            "count" : 2,
            "type" : "VEC4"
        },
        {
            "bufferView" : 20,
            "componentType" : 5126,
            "count" : 2,
            "type" : "VEC3"
        },
        {
            "bufferView" : 21,
            "componentType" : 5126,
            "count" : 154,
            "type" : "VEC3"
        },
        {
            "bufferView" : 22,
            "componentType" : 5126,
            "count" : 2,
            "type" : "VEC4"
        },
        {
            "bufferView" : 23,
            "componentType" : 5126,
            "count" : 2,
            "type" : "VEC3"
        },
        {
            "bufferView" : 24,
            "componentType" : 5126,
            "count" : 154,
            "type" : "VEC3"
        },
        {
            "bufferView" : 25,
            "componentType" : 5126,
            "count" : 2,
            "type" : "VEC4"
        },
        {
            "bufferView" : 26,
            "componentType" : 5126,
            "count" : 2,
            "type" : "VEC3"
        },
        {
            "bufferView" : 27,
            "componentType" : 5126,
            "count" : 154,
            "type" : "VEC3"
        },
        {
            "bufferView" : 28,
            "componentType" : 5126,
            "count" : 2,
            "type" : "VEC4"
        },
        {
            "bufferView" : 29,
            "componentType" : 5126,
            "count" : 2,
            "type" : "VEC3"
        }
    ],
    "bufferViews" : [
        {
            "buffer" : 0,
            "byteLength" : 24576,
            "byteOffset" : 0
        },
        {
            "buffer" : 0,
            "byteLength" : 24576,
            "byteOffset" : 24576
        },
        {
            "buffer" : 0,
            "byteLength" : 16384,
            "byteOffset" : 49152
        },
        {
            "buffer" : 0,
            "byteLength" : 9192,
            "byteOffset" : 65536
        },
        {
            "buffer" : 0,
            "byteLength" : 60180,
            "byteOffset" : 74728
        },
        {
            "buffer" : 0,
            "byteLength" : 60180,
            "byteOffset" : 134908
        },
        {
            "buffer" : 0,
            "byteLength" : 40120,
            "byteOffset" : 195088
        },
        {
            "buffer" : 0,
            "byteLength" : 21000,
            "byteOffset" : 235208
        },
        {
            "buffer" : 0,
            "byteLength" : 768,
            "byteOffset" : 256208
        },
        {
            "buffer" : 0,
            "byteLength" : 768,
            "byteOffset" : 256976
        },
        {
            "buffer" : 0,
            "byteLength" : 512,
            "byteOffset" : 257744
        },
        {
            "buffer" : 0,
            "byteLength" : 192,
            "byteOffset" : 258256
        },
        {
            "buffer" : 0,
            "byteLength" : 3840,
            "byteOffset" : 258448
        },
        {
            "buffer" : 0,
            "byteLength" : 3840,
            "byteOffset" : 262288
        },
        {
            "buffer" : 0,
            "byteLength" : 2560,
            "byteOffset" : 266128
        },
        {
            "buffer" : 0,
            "byteLength" : 1296,
            "byteOffset" : 268688
        },
        {
            "buffer" : 0,
            "byteLength" : 616,
            "byteOffset" : 269984
        },
        {
            "buffer" : 0,
            "byteLength" : 1848,
            "byteOffset" : 270600
        },
        {
            "buffer" : 0,
            "byteLength" : 8,
            "byteOffset" : 272448
        },
        {
            "buffer" : 0,
            "byteLength" : 32,
            "byteOffset" : 272456
        },
        {
            "buffer" : 0,
            "byteLength" : 24,
            "byteOffset" : 272488
        },
        {
            "buffer" : 0,
            "byteLength" : 1848,
            "byteOffset" : 272512
        },
        {
            "buffer" : 0,
            "byteLength" : 32,
            "byteOffset" : 274360
        },
        {
            "buffer" : 0,
            "byteLength" : 24,
            "byteOffset" : 274392
        },
        {
            "buffer" : 0,
            "byteLength" : 1848,
            "byteOffset" : 274416
        },
        {
            "buffer" : 0,
            "byteLength" : 32,
            "byteOffset" : 276264
        },
        {
            "buffer" : 0,
            "byteLength" : 24,
            "byteOffset" : 276296
        },
        {
            "buffer" : 0,
            "byteLength" : 1848,
            "byteOffset" : 276320
        },
        {
            "buffer" : 0,
            "byteLength" : 32,
            "byteOffset" : 278168
        },
        {
            "buffer" : 0,
            "byteLength" : 24,
            "byteOffset" : 278200
        }
    ],
    "buffers" : [
        {
            "byteLength" : 278224,
            "uri" : "data:application/octet-stream;base64,"
        }
    ]
}
